<?xml version="1.0" standalone="no"?>
<!DOCTYPE svg PUBLIC "-//W3C//DTD SVG 20010904//EN"
 "http://www.w3.org/TR/2001/REC-SVG-20010904/DTD/svg10.dtd">
<svg version="1.0" xmlns="http://www.w3.org/2000/svg"
 width="534.000000pt" height="716.000000pt" viewBox="0 0 534.000000 716.000000"
 preserveAspectRatio="xMidYMid meet">

<g transform="translate(0.000000,716.000000) scale(0.100000,-0.100000)"
fill="#000000" stroke="none">
<path d="M3110 7120 c-491 -38 -930 -208 -1274 -494 -43 -36 -84 -66 -90 -66
-100 -5 -144 -20 -182 -62 -33 -36 -44 -63 -44 -111 0 -34 -6 -49 -26 -68 -53
-49 -93 -155 -124 -324 -22 -123 -50 -379 -50 -453 0 -27 -7 -67 -16 -88 -14
-33 -15 -88 -9 -483 4 -245 11 -456 16 -467 5 -14 0 -51 -12 -99 -33 -134 -23
-181 54 -252 55 -51 103 -63 164 -41 40 14 43 14 48 -3 3 -10 19 -29 36 -43
55 -47 143 -46 199 0 l30 26 28 -32 c15 -17 52 -48 82 -68 48 -33 62 -37 117
-37 60 0 62 -1 49 -20 -28 -44 -73 -55 -257 -61 -197 -6 -323 -23 -489 -66
-439 -114 -746 -325 -932 -643 -125 -213 -256 -644 -328 -1075 -21 -128 -32
-184 -55 -280 -7 -30 -18 -76 -24 -103 -14 -60 -14 -269 0 -395 12 -112 65
-309 111 -409 48 -107 116 -220 192 -322 39 -51 91 -121 115 -155 l44 -61 8
-180 c4 -99 8 -181 8 -182 2 -8 3861 -2 3861 6 0 5 -4 20 -9 33 -5 13 -16 116
-25 228 -9 113 -18 231 -21 263 l-6 57 98 0 c113 1 223 13 297 34 28 9 98 27
156 41 206 50 383 103 409 122 50 37 66 87 66 203 -1 110 -13 173 -65 340 -16
52 -48 156 -71 230 -59 193 -85 259 -126 326 -20 33 -43 73 -51 89 -9 17 -55
89 -102 160 -48 72 -178 270 -290 440 -365 556 -461 699 -527 777 -166 200
-323 297 -608 378 -129 37 -175 64 -208 122 -28 48 -63 196 -50 208 4 4 56 23
115 43 387 132 555 286 566 517 3 73 -11 248 -34 411 l-6 46 40 7 c51 8 97 46
112 92 8 22 11 75 8 135 l-4 99 33 11 c18 6 49 30 69 54 21 26 47 46 64 50 61
14 110 77 110 143 0 28 -43 156 -60 177 -16 21 -90 263 -96 315 -8 78 -21 114
-49 140 -16 15 -25 34 -25 54 0 28 7 35 62 65 84 47 138 97 138 129 0 14 -11
39 -24 57 l-24 31 49 43 c101 87 83 193 -43 257 -67 34 -297 109 -408 132
-231 50 -490 68 -710 52z m-830 -850 c387 -93 867 -114 1245 -55 60 9 91 11
96 4 3 -6 9 -65 12 -132 4 -67 24 -266 46 -442 22 -176 56 -475 76 -663 39
-370 39 -396 -5 -483 -69 -134 -339 -291 -625 -362 -137 -35 -299 -59 -343
-52 -77 13 -88 18 -130 63 l-43 47 -20 -24 c-37 -46 -4 -107 79 -148 70 -35
124 -35 335 -3 81 13 150 20 153 18 3 -3 0 -27 -7 -52 -17 -69 -5 -138 43
-238 l42 -89 -39 -112 c-73 -212 -122 -285 -229 -337 -86 -42 -180 -54 -314
-41 -269 27 -461 118 -647 305 -80 80 -195 232 -195 256 0 18 37 29 135 40
130 14 168 26 210 67 58 56 86 123 120 285 4 20 16 32 39 42 38 16 54 49 35
72 -7 8 -36 31 -65 50 -107 71 -313 320 -350 424 -28 78 -22 75 -121 76 -108
1 -141 16 -174 83 -26 52 -39 175 -20 194 6 6 11 19 11 29 0 25 63 92 104 112
50 24 87 20 111 -10 19 -24 25 -26 64 -19 l43 7 -8 207 c-9 233 -9 270 4 283
5 5 40 20 78 33 79 29 129 75 139 128 5 25 -1 63 -19 126 -29 101 -33 166 -12
235 15 49 41 96 54 96 4 0 45 -9 92 -20z m103 -4337 l98 -6 -6 -51 c-4 -28 -9
-59 -11 -68 -5 -16 2 -18 48 -18 30 0 59 -5 66 -12 18 -18 26 -2 30 68 l4 66
47 -7 c25 -3 226 -35 446 -70 220 -35 411 -65 424 -67 21 -3 30 -21 81 -168
31 -91 73 -205 92 -255 20 -49 57 -155 82 -235 26 -80 57 -161 70 -180 13 -19
26 -51 30 -71 l6 -36 -72 17 c-138 33 -233 62 -368 112 -204 76 -342 149 -638
335 -109 69 -287 165 -344 186 -14 5 -13 8 40 77 34 46 41 70 18 70 -8 0 -33
9 -56 19 l-42 19 -36 -72 c-19 -39 -35 -72 -36 -73 -1 0 -39 8 -86 18 -56 13
-160 23 -305 30 -121 6 -227 14 -235 18 -12 7 -117 229 -119 253 -2 17 271 84
399 97 98 11 251 12 373 4z m-224 -538 c192 -34 346 -101 615 -270 l159 -99
-74 -34 c-151 -69 -631 -252 -660 -252 -5 0 -4 12 1 26 18 46 11 91 -25 160
-19 37 -56 92 -83 122 -95 111 -188 228 -220 279 -18 28 -40 57 -48 63 -34 29
-14 33 119 26 74 -3 171 -13 216 -21z"/>
<path d="M3183 5869 c-19 -19 -16 -73 5 -91 9 -9 44 -21 77 -28 66 -14 141
-48 166 -76 21 -24 49 -106 49 -144 0 -24 4 -30 21 -30 21 0 22 3 16 99 -4 75
-9 104 -23 121 -95 117 -145 150 -237 157 -43 3 -66 1 -74 -8z"/>
<path d="M2638 5856 c-59 -16 -148 -74 -182 -119 -63 -83 -87 -176 -70 -279 8
-46 29 -50 38 -8 10 51 57 163 83 198 30 41 64 58 160 82 88 22 119 45 109 84
-6 25 -51 57 -78 55 -7 0 -34 -6 -60 -13z"/>
<path d="M3283 5530 c-37 -22 -53 -48 -53 -84 0 -37 17 -41 50 -12 53 44 69
44 111 -5 32 -37 41 -42 56 -33 42 26 21 97 -40 134 -41 25 -83 25 -124 0z"/>
<path d="M2589 5517 c-60 -39 -109 -163 -77 -195 20 -20 27 -14 52 41 13 28
35 63 50 76 35 33 70 21 109 -37 22 -33 34 -42 57 -42 38 0 56 30 39 63 -58
109 -151 147 -230 94z"/>
<path d="M3127 5183 c-14 -13 -6 -22 46 -52 62 -36 82 -68 65 -106 -16 -37
-50 -41 -136 -16 l-77 21 -18 -22 c-17 -21 -17 -22 0 -39 21 -20 117 -49 162
-49 112 0 176 105 121 196 -31 49 -137 93 -163 67z"/>
<path d="M1723 5049 c-24 -12 -43 -25 -43 -30 0 -5 20 -9 44 -9 58 0 100 -16
165 -61 46 -32 57 -36 78 -26 37 17 41 53 8 87 -15 16 -43 36 -60 45 -48 22
-141 19 -192 -6z"/>
<path d="M3207 4782 c-10 -10 -17 -24 -17 -30 0 -6 -12 -24 -26 -41 -35 -42
-70 -41 -124 4 -54 45 -70 45 -70 1 0 -65 75 -126 155 -126 102 0 204 119 160
186 -19 29 -55 31 -78 6z"/>
</g>
</svg>
